<svg width="32" height="32" viewBox="0 0 32 32" fill="none" xmlns="http://www.w3.org/2000/svg">
<path fill-rule="evenodd" clip-rule="evenodd" d="M17.2541 20.6152L15.1135 28.4367C15.1135 28.4367 18.9768 28.1839 22.9218 25.5027C27.3739 22.4767 31.2898 18.6719 30.3736 12.072C30.3736 12.072 28.5633 2.51909 17.1474 4.19793C17.1474 4.19793 10.1603 5.40629 6.62726 9.08689L12.4338 10.6795C12.4338 10.6795 17.954 4.59536 24.5846 7.79378C24.5846 7.79378 30.4028 11.0653 24.9251 17.145C21.7091 20.7219 17.2541 20.6152 17.2541 20.6152ZM20.232 15.5261C22.919 14.1088 23.6087 11.6541 22.1475 10.1286C21.0064 8.93488 18.7869 8.81068 16.8217 9.70636C14.9719 10.5494 13.613 12.7148 14.5336 14.6304C15.156 15.9176 17.4704 16.9872 20.232 15.5261ZM11.9663 11.5459L5.94788 10.2031C0.522682 15.9235 2.26728 21.7929 2.26728 21.7929L11.17 16.5211C10.0756 13.4863 11.9663 11.5459 11.9663 11.5459ZM15.9889 20.3011C14.2833 19.9438 12.7429 19.035 11.6055 17.7149L3.05051 23.4352C6.23433 29.2052 12.9979 28.4586 12.9979 28.4586L15.9889 20.3011Z" fill="url(#paint0_linear)"/>
<defs>
<linearGradient id="paint0_linear" x1="9.07965" y1="6.95382" x2="25.7779" y2="21.8999" gradientUnits="userSpaceOnUse">
<stop offset="0.0989583" stop-color="#F45D98"/>
<stop offset="1" stop-color="#F3795E"/>
</linearGradient>
</defs>
</svg>
