<svg width="16" height="16" viewBox="0 0 16 16" fill="none" xmlns="http://www.w3.org/2000/svg">
<path fill-rule="evenodd" clip-rule="evenodd" d="M8.56133 10.8551L7.35993 15.9651C7.35993 15.9651 9.52818 15.7999 11.7424 14.0482C14.2411 12.0713 16.4389 9.58552 15.9247 5.27362C15.9247 5.27362 14.9086 -0.967515 8.50146 0.129314C8.50146 0.129314 4.57991 0.918762 2.597 3.32338L5.85593 4.36389C5.85593 4.36389 8.95413 0.388963 12.6756 2.47857C12.6756 2.47857 15.9411 4.6159 12.8667 8.58797C11.0617 10.9248 8.56133 10.8551 8.56133 10.8551ZM10.2328 7.53028C11.7409 6.60433 12.128 5.00061 11.3079 4.00401C10.6675 3.22411 9.42178 3.14297 8.31879 3.72814C7.28059 4.27894 6.51793 5.69364 7.03457 6.94512C7.38392 7.78611 8.6829 8.48488 10.2328 7.53028ZM5.59359 4.92997L2.21575 4.0527C-0.829147 7.78993 0.150009 11.6245 0.150009 11.6245L5.14666 8.18036C4.53243 6.19767 5.59359 4.92997 5.59359 4.92997ZM7.85126 10.6499C6.89403 10.4165 6.02945 9.82272 5.39107 8.96025L0.5896 12.6975C2.37652 16.4672 6.17259 15.9794 6.17259 15.9794L7.85126 10.6499Z" fill="black"/>
</svg>
