<svg width="375" height="667" viewBox="0 0 375 667" fill="none" xmlns="http://www.w3.org/2000/svg">
<g clip-path="url(#clip0)">
<rect width="375" height="667" fill="#007ACC"/>
<rect x="1" y="-13" width="375" height="699" fill="#FFB4CB"/>
<g clip-path="url(#clip1)">
<path d="M119.671 377.247C137.517 377.247 151.984 341.387 151.984 297.152C151.984 252.916 137.517 217.056 119.671 217.056C101.825 217.056 87.3578 252.916 87.3578 297.152C87.3578 341.387 101.825 377.247 119.671 377.247Z" fill="#161616"/>
<path d="M258.822 377.247C276.668 377.247 291.136 341.387 291.136 297.152C291.136 252.916 276.668 217.056 258.822 217.056C240.976 217.056 226.509 252.916 226.509 297.152C226.509 341.387 240.976 377.247 258.822 377.247Z" fill="#161616"/>
<path d="M305.086 403.46C322.941 403.46 337.416 396.484 337.416 387.878C337.416 379.272 322.941 372.296 305.086 372.296C287.23 372.296 272.755 379.272 272.755 387.878C272.755 396.484 287.23 403.46 305.086 403.46Z" fill="#FD055F"/>
<path d="M77.7686 403.46C95.6244 403.46 110.099 396.484 110.099 387.878C110.099 379.272 95.6244 372.296 77.7686 372.296C59.9127 372.296 45.4377 379.272 45.4377 387.878C45.4377 396.484 59.9127 403.46 77.7686 403.46Z" fill="#FD055F"/>
<path d="M141.504 423.266C141.504 423.266 179.931 404.043 235.824 423.266C235.824 423.266 240.482 476.857 191.576 482.099C191.576 482.099 147.909 487.925 141.504 423.266Z" fill="#BB0035"/>
<path d="M151.402 450.643C151.402 450.643 188.082 413.363 228.256 451.808C228.256 451.808 224.18 480.352 191.576 482.099C191.576 482.099 161.882 484.429 151.402 450.643Z" fill="#E86082"/>
<path d="M120.253 299.19C129.418 299.19 136.847 283.021 136.847 263.075C136.847 243.129 129.418 226.959 120.253 226.959C111.089 226.959 103.66 243.129 103.66 263.075C103.66 283.021 111.089 299.19 120.253 299.19Z" fill="white"/>
<path d="M259.404 300.356C268.569 300.356 275.998 284.186 275.998 264.24C275.998 244.294 268.569 228.124 259.404 228.124C250.24 228.124 242.811 244.294 242.811 264.24C242.811 284.186 250.24 300.356 259.404 300.356Z" fill="white"/>
<path d="M244.267 339.675C244.267 339.675 250.089 357.733 270.467 338.51C270.467 338.51 272.213 366.471 257.076 363.558C257.076 363.558 242.52 362.976 244.267 339.675Z" fill="#6520FF"/>
<path d="M107.445 342.005C107.445 342.005 113.267 360.063 133.645 340.84C133.645 340.84 135.391 368.801 120.253 365.888C120.253 365.888 105.698 365.306 107.445 342.005Z" fill="#6520FF"/>
</g>
</g>
<defs>
<clipPath id="clip0">
<rect width="375" height="667" fill="white"/>
</clipPath>
<clipPath id="clip1">
<rect width="655" height="1419" fill="white" transform="translate(-140 -364)"/>
</clipPath>
</defs>
</svg>
