<svg width="961" height="825" viewBox="0 0 961 825" fill="none" xmlns="http://www.w3.org/2000/svg">
<path fill-rule="evenodd" clip-rule="evenodd" d="M513.866 559.717L441.757 823.199C441.757 823.199 571.897 814.683 704.795 724.362C854.772 622.425 986.685 494.253 955.823 271.921C955.823 271.921 894.838 -49.8875 510.272 6.66773C510.272 6.66773 274.897 47.3737 155.88 171.362L351.485 225.013C351.485 225.013 537.443 20.0559 760.808 127.801C760.808 127.801 956.807 238.008 772.277 442.817C663.941 563.311 513.866 559.717 513.866 559.717ZM614.18 388.28C704.698 340.535 727.93 257.844 678.709 206.457C640.267 166.243 565.5 162.059 499.297 192.232C436.983 220.632 391.208 293.578 422.217 358.107C443.185 401.471 521.152 437.501 614.18 388.28ZM335.734 254.201L132.992 208.967C-49.7664 401.668 9.00375 599.39 9.00375 599.39L308.909 421.8C272.042 319.567 335.734 254.201 335.734 254.201ZM471.241 549.135C413.786 537.101 361.893 506.484 323.577 462.013L35.3866 654.714C142.64 849.089 370.485 823.937 370.485 823.937L471.241 549.135Z" fill="url(#paint0_linear)"/>
<defs>
<linearGradient id="paint0_linear" x1="238.492" y1="99.5055" x2="801.006" y2="602.994" gradientUnits="userSpaceOnUse">
<stop offset="0.0989583" stop-color="#F45D98"/>
<stop offset="1" stop-color="#F3795E"/>
</linearGradient>
</defs>
</svg>
